<mxfile host="app.diagrams.net" modified="2020-12-20T11:56:41.300Z" agent="5.0 (Windows)" etag="3mX6Gmf1nBShJB0yXKv8" version="14.1.1" type="github">
  <diagram id="lQqXiF2yGdBF0h8p6QSU" name="Page-1">
    <mxGraphModel dx="2272" dy="1863" grid="1" gridSize="10" guides="1" tooltips="1" connect="1" arrows="1" fold="1" page="1" pageScale="1" pageWidth="850" pageHeight="1100" math="0" shadow="0">
      <root>
        <mxCell id="0" />
        <mxCell id="1" parent="0" />
        <mxCell id="LWoVgDchFYnq566OmHR8-50" style="edgeStyle=none;orthogonalLoop=1;jettySize=auto;html=1;startArrow=none;startFill=0;endArrow=open;endFill=0;strokeColor=#000000;" parent="1" source="LWoVgDchFYnq566OmHR8-1" edge="1">
          <mxGeometry relative="1" as="geometry">
            <mxPoint x="-150" y="-185" as="targetPoint" />
          </mxGeometry>
        </mxCell>
        <mxCell id="LWoVgDchFYnq566OmHR8-56" style="edgeStyle=none;orthogonalLoop=1;jettySize=auto;html=1;startArrow=none;startFill=0;endArrow=none;endFill=0;strokeColor=#000000;" parent="1" source="LWoVgDchFYnq566OmHR8-1" target="LWoVgDchFYnq566OmHR8-53" edge="1">
          <mxGeometry relative="1" as="geometry" />
        </mxCell>
        <mxCell id="LWoVgDchFYnq566OmHR8-1" value="&lt;div&gt;Unregistered&lt;/div&gt;&lt;div&gt;User&lt;/div&gt;" style="shape=umlActor;verticalLabelPosition=bottom;verticalAlign=top;html=1;outlineConnect=0;" parent="1" vertex="1">
          <mxGeometry x="-170" y="320" width="30" height="60" as="geometry" />
        </mxCell>
        <mxCell id="LWoVgDchFYnq566OmHR8-47" style="edgeStyle=none;orthogonalLoop=1;jettySize=auto;html=1;startArrow=none;startFill=0;endArrow=open;endFill=0;strokeColor=#000000;" parent="1" source="LWoVgDchFYnq566OmHR8-22" edge="1">
          <mxGeometry relative="1" as="geometry">
            <mxPoint x="-140" y="-185" as="targetPoint" />
          </mxGeometry>
        </mxCell>
        <mxCell id="LWoVgDchFYnq566OmHR8-59" style="edgeStyle=none;orthogonalLoop=1;jettySize=auto;html=1;startArrow=none;startFill=0;endArrow=none;endFill=0;strokeColor=#000000;" parent="1" source="LWoVgDchFYnq566OmHR8-22" target="LWoVgDchFYnq566OmHR8-54" edge="1">
          <mxGeometry relative="1" as="geometry" />
        </mxCell>
        <mxCell id="LWoVgDchFYnq566OmHR8-61" style="edgeStyle=none;orthogonalLoop=1;jettySize=auto;html=1;startArrow=none;startFill=0;endArrow=none;endFill=0;strokeColor=#000000;" parent="1" source="LWoVgDchFYnq566OmHR8-22" edge="1">
          <mxGeometry relative="1" as="geometry">
            <mxPoint x="79" y="-70" as="targetPoint" />
          </mxGeometry>
        </mxCell>
        <mxCell id="LWoVgDchFYnq566OmHR8-22" value="&lt;div&gt;Registered&lt;/div&gt;&lt;div&gt;User&lt;/div&gt;" style="shape=umlActor;verticalLabelPosition=bottom;verticalAlign=top;html=1;outlineConnect=0;" parent="1" vertex="1">
          <mxGeometry x="-130" y="-35" width="30" height="60" as="geometry" />
        </mxCell>
        <mxCell id="LWoVgDchFYnq566OmHR8-43" style="edgeStyle=none;orthogonalLoop=1;jettySize=auto;html=1;startArrow=none;startFill=0;endArrow=open;endFill=0;strokeColor=#000000;" parent="1" source="LWoVgDchFYnq566OmHR8-23" edge="1">
          <mxGeometry relative="1" as="geometry">
            <mxPoint x="-115" y="65" as="targetPoint" />
          </mxGeometry>
        </mxCell>
        <mxCell id="LWoVgDchFYnq566OmHR8-58" style="edgeStyle=none;orthogonalLoop=1;jettySize=auto;html=1;startArrow=none;startFill=0;endArrow=none;endFill=0;strokeColor=#000000;" parent="1" source="LWoVgDchFYnq566OmHR8-23" target="LWoVgDchFYnq566OmHR8-55" edge="1">
          <mxGeometry relative="1" as="geometry" />
        </mxCell>
        <mxCell id="LWoVgDchFYnq566OmHR8-78" style="edgeStyle=none;orthogonalLoop=1;jettySize=auto;html=1;entryX=0.029;entryY=0.614;entryDx=0;entryDy=0;startArrow=none;startFill=0;endArrow=none;endFill=0;strokeColor=#000000;entryPerimeter=0;" parent="1" source="LWoVgDchFYnq566OmHR8-23" target="LWoVgDchFYnq566OmHR8-77" edge="1">
          <mxGeometry relative="1" as="geometry" />
        </mxCell>
        <mxCell id="LWoVgDchFYnq566OmHR8-23" value="&lt;div&gt;Logged-&lt;/div&gt;&lt;div&gt;in User&lt;/div&gt;" style="shape=umlActor;verticalLabelPosition=bottom;verticalAlign=top;html=1;outlineConnect=0;" parent="1" vertex="1">
          <mxGeometry x="-130" y="210" width="30" height="60" as="geometry" />
        </mxCell>
        <mxCell id="LWoVgDchFYnq566OmHR8-63" style="edgeStyle=none;orthogonalLoop=1;jettySize=auto;html=1;entryX=0;entryY=0.5;entryDx=0;entryDy=0;startArrow=none;startFill=0;endArrow=none;endFill=0;strokeColor=#000000;" parent="1" source="LWoVgDchFYnq566OmHR8-25" target="LWoVgDchFYnq566OmHR8-62" edge="1">
          <mxGeometry relative="1" as="geometry" />
        </mxCell>
        <mxCell id="LWoVgDchFYnq566OmHR8-67" style="edgeStyle=none;orthogonalLoop=1;jettySize=auto;html=1;entryX=0.071;entryY=0.571;entryDx=0;entryDy=0;entryPerimeter=0;startArrow=none;startFill=0;endArrow=none;endFill=0;strokeColor=#000000;" parent="1" source="LWoVgDchFYnq566OmHR8-25" target="LWoVgDchFYnq566OmHR8-66" edge="1">
          <mxGeometry relative="1" as="geometry" />
        </mxCell>
        <mxCell id="LWoVgDchFYnq566OmHR8-71" style="edgeStyle=none;orthogonalLoop=1;jettySize=auto;html=1;startArrow=none;startFill=0;endArrow=none;endFill=0;strokeColor=#000000;entryX=0;entryY=0.5;entryDx=0;entryDy=0;" parent="1" source="LWoVgDchFYnq566OmHR8-25" target="LWoVgDchFYnq566OmHR8-70" edge="1">
          <mxGeometry relative="1" as="geometry" />
        </mxCell>
        <mxCell id="LWoVgDchFYnq566OmHR8-25" value="Visitor" style="shape=umlActor;verticalLabelPosition=bottom;verticalAlign=top;html=1;outlineConnect=0;" parent="1" vertex="1">
          <mxGeometry x="-160" y="-270" width="30" height="60" as="geometry" />
        </mxCell>
        <mxCell id="LWoVgDchFYnq566OmHR8-37" value="Clean Code&lt;br&gt;Website project" style="shape=umlFrame;whiteSpace=wrap;html=1;fontStyle=1;width=120;height=40;" parent="1" vertex="1">
          <mxGeometry x="-50" y="-510" width="770" height="1070" as="geometry" />
        </mxCell>
        <mxCell id="LWoVgDchFYnq566OmHR8-118" style="edgeStyle=none;orthogonalLoop=1;jettySize=auto;html=1;entryX=0;entryY=0.5;entryDx=0;entryDy=0;dashed=1;startArrow=none;startFill=0;endArrow=open;endFill=0;strokeColor=#000000;" parent="1" source="LWoVgDchFYnq566OmHR8-53" target="LWoVgDchFYnq566OmHR8-116" edge="1">
          <mxGeometry relative="1" as="geometry" />
        </mxCell>
        <mxCell id="LWoVgDchFYnq566OmHR8-119" style="edgeStyle=none;orthogonalLoop=1;jettySize=auto;html=1;dashed=1;startArrow=none;startFill=0;endArrow=open;endFill=0;strokeColor=#000000;" parent="1" source="LWoVgDchFYnq566OmHR8-53" target="LWoVgDchFYnq566OmHR8-117" edge="1">
          <mxGeometry relative="1" as="geometry" />
        </mxCell>
        <mxCell id="LWoVgDchFYnq566OmHR8-53" value="Register" style="ellipse;whiteSpace=wrap;html=1;" parent="1" vertex="1">
          <mxGeometry x="70" y="375" width="140" height="70" as="geometry" />
        </mxCell>
        <mxCell id="LWoVgDchFYnq566OmHR8-54" value="Login" style="ellipse;whiteSpace=wrap;html=1;" parent="1" vertex="1">
          <mxGeometry x="70" y="5" width="140" height="70" as="geometry" />
        </mxCell>
        <mxCell id="LWoVgDchFYnq566OmHR8-55" value="Logout" style="ellipse;whiteSpace=wrap;html=1;" parent="1" vertex="1">
          <mxGeometry x="70" y="250" width="140" height="70" as="geometry" />
        </mxCell>
        <mxCell id="LWoVgDchFYnq566OmHR8-81" style="edgeStyle=none;orthogonalLoop=1;jettySize=auto;html=1;startArrow=none;startFill=0;endArrow=open;endFill=0;strokeColor=#000000;dashed=1;" parent="1" source="LWoVgDchFYnq566OmHR8-60" target="LWoVgDchFYnq566OmHR8-79" edge="1">
          <mxGeometry relative="1" as="geometry" />
        </mxCell>
        <mxCell id="LWoVgDchFYnq566OmHR8-82" value="&amp;lt;&amp;lt;includes&amp;gt;&amp;gt;" style="edgeLabel;html=1;align=center;verticalAlign=middle;resizable=0;points=[];" parent="LWoVgDchFYnq566OmHR8-81" vertex="1" connectable="0">
          <mxGeometry x="0.2957" relative="1" as="geometry">
            <mxPoint x="-25.93" y="-1.5599999999999987" as="offset" />
          </mxGeometry>
        </mxCell>
        <mxCell id="LWoVgDchFYnq566OmHR8-60" value="Reset password" style="ellipse;whiteSpace=wrap;html=1;" parent="1" vertex="1">
          <mxGeometry x="70" y="-110" width="140" height="70" as="geometry" />
        </mxCell>
        <mxCell id="LWoVgDchFYnq566OmHR8-62" value="Read homepage information" style="ellipse;whiteSpace=wrap;html=1;" parent="1" vertex="1">
          <mxGeometry x="70" y="-230" width="140" height="70" as="geometry" />
        </mxCell>
        <mxCell id="LWoVgDchFYnq566OmHR8-69" style="edgeStyle=none;orthogonalLoop=1;jettySize=auto;html=1;startArrow=none;startFill=0;endArrow=none;endFill=0;strokeColor=#000000;dashed=1;" parent="1" source="LWoVgDchFYnq566OmHR8-66" target="LWoVgDchFYnq566OmHR8-68" edge="1">
          <mxGeometry relative="1" as="geometry" />
        </mxCell>
        <mxCell id="LWoVgDchFYnq566OmHR8-66" value="Access Open Source" style="ellipse;whiteSpace=wrap;html=1;" parent="1" vertex="1">
          <mxGeometry x="70" y="-460" width="140" height="70" as="geometry" />
        </mxCell>
        <mxCell id="LWoVgDchFYnq566OmHR8-68" value="GitHub" style="shape=umlFrame;whiteSpace=wrap;html=1;" parent="1" vertex="1">
          <mxGeometry x="100" y="-570" width="80" height="30" as="geometry" />
        </mxCell>
        <mxCell id="LWoVgDchFYnq566OmHR8-70" value="Draw Sketch" style="ellipse;whiteSpace=wrap;html=1;" parent="1" vertex="1">
          <mxGeometry x="70" y="-340" width="140" height="70" as="geometry" />
        </mxCell>
        <mxCell id="LWoVgDchFYnq566OmHR8-74" style="edgeStyle=none;orthogonalLoop=1;jettySize=auto;html=1;dashed=1;startArrow=none;startFill=0;endArrow=none;endFill=0;strokeColor=#000000;" parent="1" source="LWoVgDchFYnq566OmHR8-72" target="LWoVgDchFYnq566OmHR8-70" edge="1">
          <mxGeometry relative="1" as="geometry" />
        </mxCell>
        <mxCell id="LWoVgDchFYnq566OmHR8-72" value="&lt;div&gt;Preconditions:&lt;/div&gt;&lt;div&gt;Screenwidth &amp;gt;770px&lt;/div&gt;&lt;div&gt;Mouse only&lt;br&gt;&lt;/div&gt;" style="shape=note;size=20;whiteSpace=wrap;html=1;align=center;" parent="1" vertex="1">
          <mxGeometry x="400" y="-345" width="150" height="80" as="geometry" />
        </mxCell>
        <mxCell id="LWoVgDchFYnq566OmHR8-77" value="View own Notes" style="ellipse;whiteSpace=wrap;html=1;align=center;" parent="1" vertex="1">
          <mxGeometry x="70" y="130" width="140" height="70" as="geometry" />
        </mxCell>
        <mxCell id="LWoVgDchFYnq566OmHR8-79" value="Request Reset&lt;br&gt;via Link in email" style="ellipse;whiteSpace=wrap;html=1;align=center;" parent="1" vertex="1">
          <mxGeometry x="260" y="-170" width="140" height="70" as="geometry" />
        </mxCell>
        <mxCell id="LWoVgDchFYnq566OmHR8-100" style="edgeStyle=none;orthogonalLoop=1;jettySize=auto;html=1;dashed=1;startArrow=none;startFill=0;endArrow=open;endFill=0;strokeColor=#000000;entryX=1;entryY=0.5;entryDx=0;entryDy=0;exitX=0;exitY=0.5;exitDx=0;exitDy=0;" parent="1" source="LWoVgDchFYnq566OmHR8-107" target="LWoVgDchFYnq566OmHR8-104" edge="1">
          <mxGeometry relative="1" as="geometry">
            <mxPoint x="425" y="165" as="sourcePoint" />
          </mxGeometry>
        </mxCell>
        <mxCell id="LWoVgDchFYnq566OmHR8-105" style="edgeStyle=none;orthogonalLoop=1;jettySize=auto;html=1;dashed=1;startArrow=none;startFill=0;endArrow=open;endFill=0;strokeColor=#000000;" parent="1" source="LWoVgDchFYnq566OmHR8-85" target="LWoVgDchFYnq566OmHR8-104" edge="1">
          <mxGeometry relative="1" as="geometry" />
        </mxCell>
        <mxCell id="LWoVgDchFYnq566OmHR8-85" value="Delete Note" style="ellipse;whiteSpace=wrap;html=1;align=center;" parent="1" vertex="1">
          <mxGeometry x="285" y="200" width="100" height="40" as="geometry" />
        </mxCell>
        <mxCell id="LWoVgDchFYnq566OmHR8-102" style="edgeStyle=none;orthogonalLoop=1;jettySize=auto;html=1;dashed=1;startArrow=none;startFill=0;endArrow=open;endFill=0;strokeColor=#000000;" parent="1" source="LWoVgDchFYnq566OmHR8-86" target="LWoVgDchFYnq566OmHR8-77" edge="1">
          <mxGeometry relative="1" as="geometry" />
        </mxCell>
        <mxCell id="LWoVgDchFYnq566OmHR8-86" value="Update Note" style="ellipse;whiteSpace=wrap;html=1;align=center;" parent="1" vertex="1">
          <mxGeometry x="285" y="145" width="100" height="40" as="geometry" />
        </mxCell>
        <mxCell id="LWoVgDchFYnq566OmHR8-108" style="edgeStyle=none;orthogonalLoop=1;jettySize=auto;html=1;entryX=0.564;entryY=0.963;entryDx=0;entryDy=0;dashed=1;startArrow=none;startFill=0;endArrow=open;endFill=0;strokeColor=#000000;entryPerimeter=0;" parent="1" source="LWoVgDchFYnq566OmHR8-87" target="LWoVgDchFYnq566OmHR8-107" edge="1">
          <mxGeometry relative="1" as="geometry" />
        </mxCell>
        <mxCell id="LWoVgDchFYnq566OmHR8-87" value="Attach picture(s)&lt;br&gt;to Note" style="ellipse;whiteSpace=wrap;html=1;align=center;" parent="1" vertex="1">
          <mxGeometry x="400" y="150" width="140" height="70" as="geometry" />
        </mxCell>
        <mxCell id="LWoVgDchFYnq566OmHR8-95" style="edgeStyle=none;orthogonalLoop=1;jettySize=auto;html=1;entryX=0.95;entryY=0.7;entryDx=0;entryDy=0;entryPerimeter=0;dashed=1;startArrow=none;startFill=0;endArrow=open;endFill=0;strokeColor=#000000;" parent="1" source="LWoVgDchFYnq566OmHR8-88" target="LWoVgDchFYnq566OmHR8-70" edge="1">
          <mxGeometry relative="1" as="geometry" />
        </mxCell>
        <mxCell id="LWoVgDchFYnq566OmHR8-88" value="Download Sketch" style="ellipse;whiteSpace=wrap;html=1;align=center;" parent="1" vertex="1">
          <mxGeometry x="260" y="-265" width="140" height="70" as="geometry" />
        </mxCell>
        <mxCell id="LWoVgDchFYnq566OmHR8-90" style="edgeStyle=none;orthogonalLoop=1;jettySize=auto;html=1;entryX=0.943;entryY=0.329;entryDx=0;entryDy=0;entryPerimeter=0;dashed=1;startArrow=none;startFill=0;endArrow=open;endFill=0;strokeColor=#000000;" parent="1" source="LWoVgDchFYnq566OmHR8-89" target="LWoVgDchFYnq566OmHR8-70" edge="1">
          <mxGeometry relative="1" as="geometry" />
        </mxCell>
        <mxCell id="LWoVgDchFYnq566OmHR8-96" value="&amp;lt;&amp;lt;extends&amp;gt;&amp;gt;" style="edgeLabel;html=1;align=center;verticalAlign=middle;resizable=0;points=[];" parent="LWoVgDchFYnq566OmHR8-90" vertex="1" connectable="0">
          <mxGeometry x="-0.4603" y="5" relative="1" as="geometry">
            <mxPoint x="-22.68" y="-6.229999999999999" as="offset" />
          </mxGeometry>
        </mxCell>
        <mxCell id="LWoVgDchFYnq566OmHR8-89" value="Start script drawing Mandelbrot Set" style="ellipse;whiteSpace=wrap;html=1;align=center;" parent="1" vertex="1">
          <mxGeometry x="260" y="-415" width="140" height="70" as="geometry" />
        </mxCell>
        <mxCell id="LWoVgDchFYnq566OmHR8-97" value="&amp;lt;&amp;lt;extends&amp;gt;&amp;gt;" style="edgeLabel;html=1;align=center;verticalAlign=middle;resizable=0;points=[];" parent="1" vertex="1" connectable="0">
          <mxGeometry x="259.9967382106083" y="-260.00002434834187" as="geometry">
            <mxPoint x="-15" y="-11" as="offset" />
          </mxGeometry>
        </mxCell>
        <mxCell id="LWoVgDchFYnq566OmHR8-101" value="&amp;lt;&amp;lt;extends&amp;gt;&amp;gt;" style="edgeLabel;html=1;align=center;verticalAlign=middle;resizable=0;points=[];" parent="1" vertex="1" connectable="0">
          <mxGeometry x="249.99786885735887" y="149.99954262405436" as="geometry">
            <mxPoint x="2" y="-1" as="offset" />
          </mxGeometry>
        </mxCell>
        <mxCell id="LWoVgDchFYnq566OmHR8-103" value="&amp;lt;&amp;lt;extends&amp;gt;&amp;gt;" style="edgeLabel;html=1;align=center;verticalAlign=middle;resizable=0;points=[];" parent="1" vertex="1" connectable="0">
          <mxGeometry x="249.99786885735887" y="179.99954262405436" as="geometry">
            <mxPoint x="2" y="-1" as="offset" />
          </mxGeometry>
        </mxCell>
        <mxCell id="LWoVgDchFYnq566OmHR8-104" value="&lt;div&gt;View own Notes&lt;/div&gt;&lt;div&gt;&lt;br&gt;&lt;/div&gt;&lt;div&gt;&lt;b&gt;Extension points&lt;/b&gt;&lt;/div&gt;&lt;div&gt;Manage&lt;br&gt;&lt;/div&gt;" style="shape=lineEllipse;perimeter=ellipsePerimeter;whiteSpace=wrap;html=1;backgroundOutline=1;align=center;" parent="1" vertex="1">
          <mxGeometry x="70" y="125" width="140" height="80" as="geometry" />
        </mxCell>
        <mxCell id="LWoVgDchFYnq566OmHR8-106" value="&amp;lt;&amp;lt;extends&amp;gt;&amp;gt;" style="edgeLabel;html=1;align=center;verticalAlign=middle;resizable=0;points=[];" parent="1" vertex="1" connectable="0">
          <mxGeometry x="269.99786885735887" y="239.99954262405436" as="geometry">
            <mxPoint x="-20" y="-40" as="offset" />
          </mxGeometry>
        </mxCell>
        <mxCell id="LWoVgDchFYnq566OmHR8-124" style="edgeStyle=none;orthogonalLoop=1;jettySize=auto;html=1;dashed=1;startArrow=none;startFill=0;endArrow=open;endFill=0;strokeColor=#000000;entryX=0.064;entryY=0.729;entryDx=0;entryDy=0;entryPerimeter=0;" parent="1" source="LWoVgDchFYnq566OmHR8-107" target="LWoVgDchFYnq566OmHR8-122" edge="1">
          <mxGeometry relative="1" as="geometry" />
        </mxCell>
        <mxCell id="LWoVgDchFYnq566OmHR8-107" value="&lt;div&gt;Create Notes&lt;/div&gt;&lt;div&gt;&lt;br&gt;&lt;/div&gt;&lt;div&gt;&lt;b&gt;Extension points&lt;/b&gt;&lt;/div&gt;&lt;div&gt;Picture(s), alarm&lt;br&gt;&lt;/div&gt;" style="shape=lineEllipse;perimeter=ellipsePerimeter;whiteSpace=wrap;html=1;backgroundOutline=1;align=center;" parent="1" vertex="1">
          <mxGeometry x="390" y="40" width="140" height="80" as="geometry" />
        </mxCell>
        <mxCell id="LWoVgDchFYnq566OmHR8-109" value="&amp;lt;&amp;lt;extends&amp;gt;&amp;gt;" style="edgeLabel;html=1;align=center;verticalAlign=middle;resizable=0;points=[];" parent="1" vertex="1" connectable="0">
          <mxGeometry x="439.99786885735887" y="139.99954262405436" as="geometry">
            <mxPoint x="2" y="-1" as="offset" />
          </mxGeometry>
        </mxCell>
        <mxCell id="LWoVgDchFYnq566OmHR8-111" style="edgeStyle=none;orthogonalLoop=1;jettySize=auto;html=1;entryX=0.95;entryY=0.713;entryDx=0;entryDy=0;entryPerimeter=0;dashed=1;startArrow=none;startFill=0;endArrow=open;endFill=0;strokeColor=#000000;" parent="1" source="LWoVgDchFYnq566OmHR8-110" target="LWoVgDchFYnq566OmHR8-107" edge="1">
          <mxGeometry relative="1" as="geometry" />
        </mxCell>
        <mxCell id="LWoVgDchFYnq566OmHR8-114" style="edgeStyle=none;orthogonalLoop=1;jettySize=auto;html=1;dashed=1;startArrow=none;startFill=0;endArrow=open;endFill=0;strokeColor=#000000;" parent="1" source="LWoVgDchFYnq566OmHR8-110" target="LWoVgDchFYnq566OmHR8-113" edge="1">
          <mxGeometry relative="1" as="geometry" />
        </mxCell>
        <mxCell id="LWoVgDchFYnq566OmHR8-110" value="Set alarm" style="ellipse;whiteSpace=wrap;html=1;align=center;" parent="1" vertex="1">
          <mxGeometry x="560" y="150" width="140" height="70" as="geometry" />
        </mxCell>
        <mxCell id="LWoVgDchFYnq566OmHR8-112" value="&amp;lt;&amp;lt;extends&amp;gt;&amp;gt;" style="edgeLabel;html=1;align=center;verticalAlign=middle;resizable=0;points=[];" parent="1" vertex="1" connectable="0">
          <mxGeometry x="469.99786885735887" y="139.99954262405436" as="geometry">
            <mxPoint x="103" y="-1" as="offset" />
          </mxGeometry>
        </mxCell>
        <mxCell id="LWoVgDchFYnq566OmHR8-113" value="Receive reminder-&lt;br&gt;email(s)" style="ellipse;whiteSpace=wrap;html=1;align=center;" parent="1" vertex="1">
          <mxGeometry x="560" y="290" width="140" height="70" as="geometry" />
        </mxCell>
        <mxCell id="LWoVgDchFYnq566OmHR8-115" value="&amp;lt;&amp;lt;includes&amp;gt;&amp;gt;" style="edgeLabel;html=1;align=center;verticalAlign=middle;resizable=0;points=[];" parent="1" vertex="1" connectable="0">
          <mxGeometry x="589.9969151227658" y="219.99772627113998" as="geometry">
            <mxPoint x="43" y="16" as="offset" />
          </mxGeometry>
        </mxCell>
        <mxCell id="LWoVgDchFYnq566OmHR8-116" value="Give email-address" style="ellipse;whiteSpace=wrap;html=1;align=center;" parent="1" vertex="1">
          <mxGeometry x="300" y="375" width="140" height="70" as="geometry" />
        </mxCell>
        <mxCell id="LWoVgDchFYnq566OmHR8-117" value="Consent&lt;br&gt;privacy policy" style="ellipse;whiteSpace=wrap;html=1;align=center;" parent="1" vertex="1">
          <mxGeometry x="220" y="470" width="140" height="70" as="geometry" />
        </mxCell>
        <mxCell id="LWoVgDchFYnq566OmHR8-120" value="&amp;lt;&amp;lt;includes&amp;gt;&amp;gt;" style="edgeLabel;html=1;align=center;verticalAlign=middle;resizable=0;points=[];" parent="1" vertex="1" connectable="0">
          <mxGeometry x="249.9969151227658" y="399.99772627114" as="geometry" />
        </mxCell>
        <mxCell id="LWoVgDchFYnq566OmHR8-121" value="&amp;lt;&amp;lt;includes&amp;gt;&amp;gt;" style="edgeLabel;html=1;align=center;verticalAlign=middle;resizable=0;points=[];" parent="1" vertex="1" connectable="0">
          <mxGeometry x="219.9969151227658" y="449.99772627114" as="geometry" />
        </mxCell>
        <mxCell id="LWoVgDchFYnq566OmHR8-122" value="&lt;div&gt;Set date(s)&lt;/div&gt;&lt;div&gt;and time(s)&lt;/div&gt;" style="ellipse;whiteSpace=wrap;html=1;align=center;" parent="1" vertex="1">
          <mxGeometry x="560" y="-30" width="140" height="70" as="geometry" />
        </mxCell>
        <mxCell id="LWoVgDchFYnq566OmHR8-125" value="&amp;lt;&amp;lt;includes&amp;gt;&amp;gt;" style="edgeLabel;html=1;align=center;verticalAlign=middle;resizable=0;points=[];" parent="1" vertex="1" connectable="0">
          <mxGeometry x="539.9969151227658" y="19.99772627113998" as="geometry">
            <mxPoint x="1" y="20" as="offset" />
          </mxGeometry>
        </mxCell>
        <mxCell id="LWoVgDchFYnq566OmHR8-128" style="edgeStyle=none;orthogonalLoop=1;jettySize=auto;html=1;entryX=1;entryY=0.5;entryDx=0;entryDy=0;dashed=1;startArrow=none;startFill=0;endArrow=open;endFill=0;strokeColor=#000000;" parent="1" source="LWoVgDchFYnq566OmHR8-127" target="LWoVgDchFYnq566OmHR8-104" edge="1">
          <mxGeometry relative="1" as="geometry" />
        </mxCell>
        <mxCell id="LWoVgDchFYnq566OmHR8-127" value="Search with filters" style="ellipse;whiteSpace=wrap;html=1;align=center;" parent="1" vertex="1">
          <mxGeometry x="240" y="5" width="140" height="70" as="geometry" />
        </mxCell>
        <mxCell id="LWoVgDchFYnq566OmHR8-129" value="&amp;lt;&amp;lt;extends&amp;gt;&amp;gt;" style="edgeLabel;html=1;align=center;verticalAlign=middle;resizable=0;points=[];" parent="1" vertex="1" connectable="0">
          <mxGeometry x="249.99786885735887" y="109.99954262405436" as="geometry">
            <mxPoint x="2" y="-1" as="offset" />
          </mxGeometry>
        </mxCell>
        <mxCell id="LWoVgDchFYnq566OmHR8-131" value="&lt;div&gt;Search Notes&lt;/div&gt;&lt;div&gt;&lt;br&gt;&lt;/div&gt;&lt;div&gt;&lt;b&gt;Extension points&lt;/b&gt;&lt;/div&gt;&lt;div&gt;Filter&lt;br&gt;&lt;/div&gt;" style="shape=lineEllipse;perimeter=ellipsePerimeter;whiteSpace=wrap;html=1;backgroundOutline=1;align=center;" parent="1" vertex="1">
          <mxGeometry x="240" width="140" height="80" as="geometry" />
        </mxCell>
        <mxCell id="LWoVgDchFYnq566OmHR8-136" style="edgeStyle=none;orthogonalLoop=1;jettySize=auto;html=1;entryX=0.686;entryY=0.075;entryDx=0;entryDy=0;entryPerimeter=0;dashed=1;startArrow=none;startFill=0;endArrow=open;endFill=0;strokeColor=#000000;" parent="1" source="LWoVgDchFYnq566OmHR8-132" target="LWoVgDchFYnq566OmHR8-131" edge="1">
          <mxGeometry relative="1" as="geometry" />
        </mxCell>
        <mxCell id="LWoVgDchFYnq566OmHR8-132" value="Set daterange" style="ellipse;whiteSpace=wrap;html=1;align=center;" parent="1" vertex="1">
          <mxGeometry x="350" y="-80" width="90" height="40" as="geometry" />
        </mxCell>
        <mxCell id="LWoVgDchFYnq566OmHR8-135" style="edgeStyle=none;orthogonalLoop=1;jettySize=auto;html=1;dashed=1;startArrow=none;startFill=0;endArrow=open;endFill=0;strokeColor=#000000;" parent="1" source="LWoVgDchFYnq566OmHR8-133" target="LWoVgDchFYnq566OmHR8-131" edge="1">
          <mxGeometry relative="1" as="geometry" />
        </mxCell>
        <mxCell id="LWoVgDchFYnq566OmHR8-133" value="Type full-text" style="ellipse;whiteSpace=wrap;html=1;align=center;" parent="1" vertex="1">
          <mxGeometry x="240" y="-80" width="90" height="40" as="geometry" />
        </mxCell>
        <mxCell id="LWoVgDchFYnq566OmHR8-137" style="edgeStyle=none;orthogonalLoop=1;jettySize=auto;html=1;entryX=1;entryY=0;entryDx=0;entryDy=0;dashed=1;startArrow=none;startFill=0;endArrow=open;endFill=0;strokeColor=#000000;" parent="1" source="LWoVgDchFYnq566OmHR8-134" target="LWoVgDchFYnq566OmHR8-131" edge="1">
          <mxGeometry relative="1" as="geometry" />
        </mxCell>
        <mxCell id="LWoVgDchFYnq566OmHR8-134" value="Change order" style="ellipse;whiteSpace=wrap;html=1;align=center;" parent="1" vertex="1">
          <mxGeometry x="460" y="-80" width="90" height="40" as="geometry" />
        </mxCell>
        <mxCell id="LWoVgDchFYnq566OmHR8-138" value="&amp;lt;&amp;lt;extends&amp;gt;&amp;gt;" style="edgeLabel;html=1;align=center;verticalAlign=middle;resizable=0;points=[];" parent="1" vertex="1" connectable="0">
          <mxGeometry x="329.99786885735887" y="-20.000457375945643" as="geometry">
            <mxPoint x="103" y="-1" as="offset" />
          </mxGeometry>
        </mxCell>
        <mxCell id="LWoVgDchFYnq566OmHR8-139" value="&amp;lt;&amp;lt;extends&amp;gt;&amp;gt;" style="edgeLabel;html=1;align=center;verticalAlign=middle;resizable=0;points=[];" parent="1" vertex="1" connectable="0">
          <mxGeometry x="439.99786885735887" y="139.99954262405436" as="geometry">
            <mxPoint x="-81" y="-160" as="offset" />
          </mxGeometry>
        </mxCell>
        <mxCell id="LWoVgDchFYnq566OmHR8-140" value="&amp;lt;&amp;lt;extends&amp;gt;&amp;gt;" style="edgeLabel;html=1;align=center;verticalAlign=middle;resizable=0;points=[];" parent="1" vertex="1" connectable="0">
          <mxGeometry x="369.99786885735887" y="139.99954262405436" as="geometry">
            <mxPoint x="-81" y="-160" as="offset" />
          </mxGeometry>
        </mxCell>
        <mxCell id="LWoVgDchFYnq566OmHR8-142" style="edgeStyle=none;orthogonalLoop=1;jettySize=auto;html=1;dashed=1;startArrow=none;startFill=0;endArrow=open;endFill=0;strokeColor=#000000;" parent="1" source="LWoVgDchFYnq566OmHR8-141" target="LWoVgDchFYnq566OmHR8-104" edge="1">
          <mxGeometry relative="1" as="geometry" />
        </mxCell>
        <mxCell id="LWoVgDchFYnq566OmHR8-141" value="Load XML-Notes-file" style="ellipse;whiteSpace=wrap;html=1;align=center;" parent="1" vertex="1">
          <mxGeometry x="260" y="270" width="140" height="70" as="geometry" />
        </mxCell>
        <mxCell id="LWoVgDchFYnq566OmHR8-143" value="&amp;lt;&amp;lt;extends&amp;gt;&amp;gt;" style="edgeLabel;html=1;align=center;verticalAlign=middle;resizable=0;points=[];" parent="1" vertex="1" connectable="0">
          <mxGeometry x="249.99786885735887" y="249.99954262405436" as="geometry">
            <mxPoint x="2" y="-1" as="offset" />
          </mxGeometry>
        </mxCell>
      </root>
    </mxGraphModel>
  </diagram>
</mxfile>
